<svg xmlns="http://www.w3.org/2000/svg" viewBox="0 0 680 320" role="img" aria-label="Two distributions with the same spread against limits of 24.95 and 25.05 mm. Off-centre at 25.012, Cpk is 1.06 and about 770 parts per million fall above the upper limit. Centred at 25.000, Cpk rises to 1.39 and defects fall to about 31 per million.">
<line x1="20" y1="270" x2="660" y2="270" stroke="#0f1011"/>
<line x1="111.4" y1="66" x2="111.4" y2="270" stroke="#b4532a" stroke-width="1.5" stroke-dasharray="5 4"/><text x="111.4" y="60" font-size="13" fill="#b4532a" text-anchor="middle">LSL 24.95</text>
<line x1="568.6" y1="66" x2="568.6" y2="270" stroke="#b4532a" stroke-width="1.5" stroke-dasharray="5 4"/><text x="568.6" y="60" font-size="13" fill="#b4532a" text-anchor="middle">USL 25.05</text>
<line x1="340.0" y1="84" x2="340.0" y2="270" stroke="#5a5d60" stroke-width="1"/><text x="340.0" y="290" font-size="13" fill="#5a5d60" text-anchor="middle">Target 25.00</text>
<path d="M20.0,270.0 L21.6,270.0 L23.2,270.0 L24.8,270.0 L26.4,270.0 L28.0,270.0 L29.6,270.0 L31.2,270.0 L32.8,270.0 L34.4,270.0 L36.0,270.0 L37.6,270.0 L39.2,270.0 L40.8,270.0 L42.4,270.0 L44.0,270.0 L45.6,270.0 L47.2,270.0 L48.8,270.0 L50.4,270.0 L52.0,270.0 L53.6,270.0 L55.2,270.0 L56.8,270.0 L58.4,270.0 L60.0,270.0 L61.6,270.0 L63.2,270.0 L64.8,270.0 L66.4,270.0 L68.0,270.0 L69.6,270.0 L71.2,270.0 L72.8,270.0 L74.4,270.0 L76.0,270.0 L77.6,270.0 L79.2,270.0 L80.8,270.0 L82.4,270.0 L84.0,270.0 L85.6,270.0 L87.2,270.0 L88.8,270.0 L90.4,270.0 L92.0,270.0 L93.6,270.0 L95.2,270.0 L96.8,270.0 L98.4,270.0 L100.0,270.0 L101.6,270.0 L103.2,270.0 L104.8,270.0 L106.4,270.0 L108.0,270.0 L109.6,270.0 L111.2,270.0 L112.8,270.0 L114.4,270.0 L116.0,270.0 L117.6,270.0 L119.2,269.9 L120.8,269.9 L122.4,269.9 L124.0,269.9 L125.6,269.9 L127.2,269.9 L128.8,269.9 L130.4,269.9 L132.0,269.9 L133.6,269.8 L135.2,269.8 L136.8,269.8 L138.4,269.8 L140.0,269.8 L141.6,269.7 L143.2,269.7 L144.8,269.7 L146.4,269.6 L148.0,269.6 L149.6,269.6 L151.2,269.5 L152.8,269.5 L154.4,269.4 L156.0,269.4 L157.6,269.3 L159.2,269.2 L160.8,269.1 L162.4,269.0 L164.0,269.0 L165.6,268.9 L167.2,268.7 L168.8,268.6 L170.4,268.5 L172.0,268.3 L173.6,268.2 L175.2,268.0 L176.8,267.8 L178.4,267.7 L180.0,267.4 L181.6,267.2 L183.2,267.0 L184.8,266.7 L186.4,266.4 L188.0,266.1 L189.6,265.8 L191.2,265.5 L192.8,265.1 L194.4,264.7 L196.0,264.3 L197.6,263.8 L199.2,263.3 L200.8,262.8 L202.4,262.3 L204.0,261.7 L205.6,261.0 L207.2,260.4 L208.8,259.7 L210.4,259.0 L212.0,258.2 L213.6,257.3 L215.2,256.5 L216.8,255.5 L218.4,254.6 L220.0,253.5 L221.6,252.5 L223.2,251.3 L224.8,250.2 L226.4,248.9 L228.0,247.6 L229.6,246.2 L231.2,244.8 L232.8,243.3 L234.4,241.8 L236.0,240.2 L237.6,238.5 L239.2,236.7 L240.8,234.9 L242.4,233.0 L244.0,231.1 L245.6,229.1 L247.2,227.0 L248.8,224.8 L250.4,222.6 L252.0,220.3 L253.6,217.9 L255.2,215.5 L256.8,213.0 L258.4,210.5 L260.0,207.8 L261.6,205.2 L263.2,202.4 L264.8,199.7 L266.4,196.8 L268.0,193.9 L269.6,191.0 L271.2,188.0 L272.8,185.0 L274.4,181.9 L276.0,178.9 L277.6,175.7 L279.2,172.6 L280.8,169.4 L282.4,166.3 L284.0,163.1 L285.6,159.9 L287.2,156.7 L288.8,153.6 L290.4,150.4 L292.0,147.3 L293.6,144.1 L295.2,141.0 L296.8,138.0 L298.4,135.0 L300.0,132.0 L301.6,129.1 L303.2,126.3 L304.8,123.5 L306.4,120.8 L308.0,118.2 L309.6,115.6 L311.2,113.2 L312.8,110.8 L314.4,108.6 L316.0,106.4 L317.6,104.4 L319.2,102.5 L320.8,100.7 L322.4,99.0 L324.0,97.5 L325.6,96.1 L327.2,94.8 L328.8,93.7 L330.4,92.7 L332.0,91.9 L333.6,91.2 L335.2,90.7 L336.8,90.3 L338.4,90.1 L340.0,90.0 L341.6,90.1 L343.2,90.3 L344.8,90.7 L346.4,91.2 L348.0,91.9 L349.6,92.7 L351.2,93.7 L352.8,94.8 L354.4,96.1 L356.0,97.5 L357.6,99.0 L359.2,100.7 L360.8,102.5 L362.4,104.4 L364.0,106.4 L365.6,108.6 L367.2,110.8 L368.8,113.2 L370.4,115.6 L372.0,118.2 L373.6,120.8 L375.2,123.5 L376.8,126.3 L378.4,129.1 L380.0,132.0 L381.6,135.0 L383.2,138.0 L384.8,141.0 L386.4,144.1 L388.0,147.3 L389.6,150.4 L391.2,153.6 L392.8,156.7 L394.4,159.9 L396.0,163.1 L397.6,166.3 L399.2,169.4 L400.8,172.6 L402.4,175.7 L404.0,178.9 L405.6,181.9 L407.2,185.0 L408.8,188.0 L410.4,191.0 L412.0,193.9 L413.6,196.8 L415.2,199.7 L416.8,202.4 L418.4,205.2 L420.0,207.8 L421.6,210.5 L423.2,213.0 L424.8,215.5 L426.4,217.9 L428.0,220.3 L429.6,222.6 L431.2,224.8 L432.8,227.0 L434.4,229.1 L436.0,231.1 L437.6,233.0 L439.2,234.9 L440.8,236.7 L442.4,238.5 L444.0,240.2 L445.6,241.8 L447.2,243.3 L448.8,244.8 L450.4,246.2 L452.0,247.6 L453.6,248.9 L455.2,250.2 L456.8,251.3 L458.4,252.5 L460.0,253.5 L461.6,254.6 L463.2,255.5 L464.8,256.5 L466.4,257.3 L468.0,258.2 L469.6,259.0 L471.2,259.7 L472.8,260.4 L474.4,261.0 L476.0,261.7 L477.6,262.3 L479.2,262.8 L480.8,263.3 L482.4,263.8 L484.0,264.3 L485.6,264.7 L487.2,265.1 L488.8,265.5 L490.4,265.8 L492.0,266.1 L493.6,266.4 L495.2,266.7 L496.8,267.0 L498.4,267.2 L500.0,267.4 L501.6,267.7 L503.2,267.8 L504.8,268.0 L506.4,268.2 L508.0,268.3 L509.6,268.5 L511.2,268.6 L512.8,268.7 L514.4,268.9 L516.0,269.0 L517.6,269.0 L519.2,269.1 L520.8,269.2 L522.4,269.3 L524.0,269.4 L525.6,269.4 L527.2,269.5 L528.8,269.5 L530.4,269.6 L532.0,269.6 L533.6,269.6 L535.2,269.7 L536.8,269.7 L538.4,269.7 L540.0,269.8 L541.6,269.8 L543.2,269.8 L544.8,269.8 L546.4,269.8 L548.0,269.9 L549.6,269.9 L551.2,269.9 L552.8,269.9 L554.4,269.9 L556.0,269.9 L557.6,269.9 L559.2,269.9 L560.8,269.9 L562.4,270.0 L564.0,270.0 L565.6,270.0 L567.2,270.0 L568.8,270.0 L570.4,270.0 L572.0,270.0 L573.6,270.0 L575.2,270.0 L576.8,270.0 L578.4,270.0 L580.0,270.0 L581.6,270.0 L583.2,270.0 L584.8,270.0 L586.4,270.0 L588.0,270.0 L589.6,270.0 L591.2,270.0 L592.8,270.0 L594.4,270.0 L596.0,270.0 L597.6,270.0 L599.2,270.0 L600.8,270.0 L602.4,270.0 L604.0,270.0 L605.6,270.0 L607.2,270.0 L608.8,270.0 L610.4,270.0 L612.0,270.0 L613.6,270.0 L615.2,270.0 L616.8,270.0 L618.4,270.0 L620.0,270.0 L621.6,270.0 L623.2,270.0 L624.8,270.0 L626.4,270.0 L628.0,270.0 L629.6,270.0 L631.2,270.0 L632.8,270.0 L634.4,270.0 L636.0,270.0 L637.6,270.0 L639.2,270.0 L640.8,270.0 L642.4,270.0 L644.0,270.0 L645.6,270.0 L647.2,270.0 L648.8,270.0 L650.4,270.0 L652.0,270.0 L653.6,270.0 L655.2,270.0 L656.8,270.0 L658.4,270.0 L660.0,270.0 Z" fill="#0f1011" fill-opacity="0.08" stroke="#0f1011" stroke-width="2.5"/>
<path d="M20.0,270.0 L21.6,270.0 L23.2,270.0 L24.8,270.0 L26.4,270.0 L28.0,270.0 L29.6,270.0 L31.2,270.0 L32.8,270.0 L34.4,270.0 L36.0,270.0 L37.6,270.0 L39.2,270.0 L40.8,270.0 L42.4,270.0 L44.0,270.0 L45.6,270.0 L47.2,270.0 L48.8,270.0 L50.4,270.0 L52.0,270.0 L53.6,270.0 L55.2,270.0 L56.8,270.0 L58.4,270.0 L60.0,270.0 L61.6,270.0 L63.2,270.0 L64.8,270.0 L66.4,270.0 L68.0,270.0 L69.6,270.0 L71.2,270.0 L72.8,270.0 L74.4,270.0 L76.0,270.0 L77.6,270.0 L79.2,270.0 L80.8,270.0 L82.4,270.0 L84.0,270.0 L85.6,270.0 L87.2,270.0 L88.8,270.0 L90.4,270.0 L92.0,270.0 L93.6,270.0 L95.2,270.0 L96.8,270.0 L98.4,270.0 L100.0,270.0 L101.6,270.0 L103.2,270.0 L104.8,270.0 L106.4,270.0 L108.0,270.0 L109.6,270.0 L111.2,270.0 L112.8,270.0 L114.4,270.0 L116.0,270.0 L117.6,270.0 L119.2,270.0 L120.8,270.0 L122.4,270.0 L124.0,270.0 L125.6,270.0 L127.2,270.0 L128.8,270.0 L130.4,270.0 L132.0,270.0 L133.6,270.0 L135.2,270.0 L136.8,270.0 L138.4,270.0 L140.0,270.0 L141.6,270.0 L143.2,270.0 L144.8,270.0 L146.4,270.0 L148.0,270.0 L149.6,270.0 L151.2,270.0 L152.8,270.0 L154.4,270.0 L156.0,270.0 L157.6,270.0 L159.2,270.0 L160.8,270.0 L162.4,270.0 L164.0,270.0 L165.6,270.0 L167.2,270.0 L168.8,270.0 L170.4,270.0 L172.0,270.0 L173.6,269.9 L175.2,269.9 L176.8,269.9 L178.4,269.9 L180.0,269.9 L181.6,269.9 L183.2,269.9 L184.8,269.9 L186.4,269.9 L188.0,269.9 L189.6,269.8 L191.2,269.8 L192.8,269.8 L194.4,269.8 L196.0,269.7 L197.6,269.7 L199.2,269.7 L200.8,269.7 L202.4,269.6 L204.0,269.6 L205.6,269.5 L207.2,269.5 L208.8,269.4 L210.4,269.4 L212.0,269.3 L213.6,269.2 L215.2,269.2 L216.8,269.1 L218.4,269.0 L220.0,268.9 L221.6,268.8 L223.2,268.7 L224.8,268.5 L226.4,268.4 L228.0,268.2 L229.6,268.1 L231.2,267.9 L232.8,267.7 L234.4,267.5 L236.0,267.3 L237.6,267.0 L239.2,266.8 L240.8,266.5 L242.4,266.2 L244.0,265.9 L245.6,265.6 L247.2,265.2 L248.8,264.8 L250.4,264.4 L252.0,263.9 L253.6,263.5 L255.2,263.0 L256.8,262.4 L258.4,261.8 L260.0,261.2 L261.6,260.6 L263.2,259.9 L264.8,259.2 L266.4,258.4 L268.0,257.6 L269.6,256.7 L271.2,255.8 L272.8,254.9 L274.4,253.8 L276.0,252.8 L277.6,251.7 L279.2,250.5 L280.8,249.3 L282.4,248.0 L284.0,246.6 L285.6,245.2 L287.2,243.8 L288.8,242.2 L290.4,240.6 L292.0,239.0 L293.6,237.2 L295.2,235.4 L296.8,233.6 L298.4,231.6 L300.0,229.6 L301.6,227.6 L303.2,225.4 L304.8,223.2 L306.4,220.9 L308.0,218.6 L309.6,216.2 L311.2,213.7 L312.8,211.2 L314.4,208.6 L316.0,205.9 L317.6,203.2 L319.2,200.5 L320.8,197.6 L322.4,194.8 L324.0,191.8 L325.6,188.9 L327.2,185.9 L328.8,182.8 L330.4,179.7 L332.0,176.6 L333.6,173.5 L335.2,170.4 L336.8,167.2 L338.4,164.0 L340.0,160.8 L341.6,157.6 L343.2,154.5 L344.8,151.3 L346.4,148.1 L348.0,145.0 L349.6,141.9 L351.2,138.9 L352.8,135.8 L354.4,132.9 L356.0,129.9 L357.6,127.1 L359.2,124.3 L360.8,121.6 L362.4,118.9 L364.0,116.3 L365.6,113.9 L367.2,111.5 L368.8,109.2 L370.4,107.0 L372.0,105.0 L373.6,103.0 L375.2,101.2 L376.8,99.5 L378.4,97.9 L380.0,96.5 L381.6,95.2 L383.2,94.0 L384.8,93.0 L386.4,92.1 L388.0,91.4 L389.6,90.8 L391.2,90.4 L392.8,90.1 L394.4,90.0 L396.0,90.0 L397.6,90.2 L399.2,90.6 L400.8,91.1 L402.4,91.7 L404.0,92.5 L405.6,93.4 L407.2,94.5 L408.8,95.7 L410.4,97.1 L412.0,98.6 L413.6,100.2 L415.2,102.0 L416.8,103.8 L418.4,105.8 L420.0,107.9 L421.6,110.2 L423.2,112.5 L424.8,114.9 L426.4,117.4 L428.0,120.0 L429.6,122.7 L431.2,125.5 L432.8,128.3 L434.4,131.2 L436.0,134.1 L437.6,137.1 L439.2,140.2 L440.8,143.2 L442.4,146.4 L444.0,149.5 L445.6,152.7 L447.2,155.8 L448.8,159.0 L450.4,162.2 L452.0,165.4 L453.6,168.5 L455.2,171.7 L456.8,174.9 L458.4,178.0 L460.0,181.1 L461.6,184.1 L463.2,187.2 L464.8,190.2 L466.4,193.1 L468.0,196.0 L469.6,198.9 L471.2,201.7 L472.8,204.4 L474.4,207.1 L476.0,209.7 L477.6,212.3 L479.2,214.8 L480.8,217.2 L482.4,219.6 L484.0,221.9 L485.6,224.2 L487.2,226.4 L488.8,228.5 L490.4,230.5 L492.0,232.5 L493.6,234.4 L495.2,236.2 L496.8,238.0 L498.4,239.7 L500.0,241.3 L501.6,242.9 L503.2,244.4 L504.8,245.8 L506.4,247.2 L508.0,248.5 L509.6,249.8 L511.2,251.0 L512.8,252.2 L514.4,253.2 L516.0,254.3 L517.6,255.3 L519.2,256.2 L520.8,257.1 L522.4,257.9 L524.0,258.7 L525.6,259.5 L527.2,260.2 L528.8,260.9 L530.4,261.5 L532.0,262.1 L533.6,262.7 L535.2,263.2 L536.8,263.7 L538.4,264.1 L540.0,264.6 L541.6,265.0 L543.2,265.4 L544.8,265.7 L546.4,266.0 L548.0,266.3 L549.6,266.6 L551.2,266.9 L552.8,267.1 L554.4,267.4 L556.0,267.6 L557.6,267.8 L559.2,268.0 L560.8,268.1 L562.4,268.3 L564.0,268.4 L565.6,268.6 L567.2,268.7 L568.8,268.8 L570.4,268.9 L572.0,269.0 L573.6,269.1 L575.2,269.2 L576.8,269.3 L578.4,269.3 L580.0,269.4 L581.6,269.5 L583.2,269.5 L584.8,269.6 L586.4,269.6 L588.0,269.6 L589.6,269.7 L591.2,269.7 L592.8,269.7 L594.4,269.8 L596.0,269.8 L597.6,269.8 L599.2,269.8 L600.8,269.8 L602.4,269.9 L604.0,269.9 L605.6,269.9 L607.2,269.9 L608.8,269.9 L610.4,269.9 L612.0,269.9 L613.6,269.9 L615.2,269.9 L616.8,269.9 L618.4,270.0 L620.0,270.0 L621.6,270.0 L623.2,270.0 L624.8,270.0 L626.4,270.0 L628.0,270.0 L629.6,270.0 L631.2,270.0 L632.8,270.0 L634.4,270.0 L636.0,270.0 L637.6,270.0 L639.2,270.0 L640.8,270.0 L642.4,270.0 L644.0,270.0 L645.6,270.0 L647.2,270.0 L648.8,270.0 L650.4,270.0 L652.0,270.0 L653.6,270.0 L655.2,270.0 L656.8,270.0 L658.4,270.0 L660.0,270.0 Z" fill="#6f7f8c" fill-opacity="0.15" stroke="#6f7f8c" stroke-width="2" stroke-dasharray="6 4"/>
<line x1="20" y1="12" x2="44" y2="12" stroke="#0f1011" stroke-width="2.5"/><text x="52" y="16" font-size="13" fill="#0f1011"><tspan font-weight="600">Centred</tspan> at 25.000: Cpk 1.39, about 31 ppm out of spec</text>
<line x1="20" y1="32" x2="44" y2="32" stroke="#6f7f8c" stroke-width="2" stroke-dasharray="6 4"/><text x="52" y="36" font-size="13" fill="#6f7f8c"><tspan font-weight="600">Off-centre</tspan> at 25.012: Cpk 1.06, about 770 ppm out of spec</text>
</svg>