<svg xmlns="http://www.w3.org/2000/svg" viewBox="0 0 680 380" role="img" aria-label="Earned value S-curve. At month 4 the plan said 80 thousand euros of work, 60 thousand was earned and 75 thousand was spent. At this efficiency the project finishes at 250 thousand against a 200 thousand budget.">
<line x1="52" y1="330.0" x2="580" y2="330.0" stroke="#d6d3cb"/>
<text x="44" y="334.0" font-size="13" fill="#5a5d60" text-anchor="end">0</text>
<line x1="52" y1="270.4" x2="580" y2="270.4" stroke="#d6d3cb"/>
<text x="44" y="274.4" font-size="13" fill="#5a5d60" text-anchor="end">€50k</text>
<line x1="52" y1="210.8" x2="580" y2="210.8" stroke="#d6d3cb"/>
<text x="44" y="214.8" font-size="13" fill="#5a5d60" text-anchor="end">€100k</text>
<line x1="52" y1="151.2" x2="580" y2="151.2" stroke="#d6d3cb"/>
<text x="44" y="155.2" font-size="13" fill="#5a5d60" text-anchor="end">€150k</text>
<line x1="52" y1="91.5" x2="580" y2="91.5" stroke="#d6d3cb"/>
<text x="44" y="95.5" font-size="13" fill="#5a5d60" text-anchor="end">€200k</text>
<line x1="52" y1="31.9" x2="580" y2="31.9" stroke="#d6d3cb"/>
<text x="44" y="35.9" font-size="13" fill="#5a5d60" text-anchor="end">€250k</text>
<text x="52.0" y="352" font-size="13" fill="#5a5d60" text-anchor="middle">0</text>
<text x="138.3" y="352" font-size="13" fill="#5a5d60" text-anchor="middle">2</text>
<text x="224.7" y="352" font-size="13" fill="#5a5d60" text-anchor="middle">4</text>
<text x="311.0" y="352" font-size="13" fill="#5a5d60" text-anchor="middle">6</text>
<text x="397.3" y="352" font-size="13" fill="#5a5d60" text-anchor="middle">8</text>
<text x="483.7" y="352" font-size="13" fill="#5a5d60" text-anchor="middle">10</text>
<text x="570.0" y="352" font-size="13" fill="#5a5d60" text-anchor="middle">12 months</text>
<line x1="224.7" y1="20" x2="224.7" y2="330" stroke="#0f1011" stroke-dasharray="3 4"/>
<text x="230.7" y="32" font-size="13" fill="#0f1011">Status date, month 4</text>
<line x1="483.7" y1="91.5" x2="580" y2="91.5" stroke="#6f7f8c" stroke-width="1.5"/>
<text x="586" y="95.5" font-size="13" fill="#6f7f8c">BAC €200k</text>
<polyline points="52.0,330.0 95.2,320.5 138.3,306.2 181.5,277.5 224.7,234.6 267.8,191.7 311.0,158.3 354.2,132.1 397.3,113.0 440.5,98.7 483.7,91.5" fill="none" stroke="#6f7f8c" stroke-width="2.5"/>
<path d="M224.7,240.6 C354.2,151.2 462.1,49.8 553.3,31.9" fill="none" stroke="#b4532a" stroke-width="2" stroke-dasharray="5 4"/>
<line x1="553.3" y1="31.9" x2="580" y2="31.9" stroke="#b4532a" stroke-width="1.5" stroke-dasharray="5 4"/>
<text x="586" y="35.9" font-size="13" fill="#b4532a">EAC €250k</text>
<polyline points="52.0,330.0 95.2,320.5 138.3,306.2 181.5,276.3 224.7,240.6" fill="none" stroke="#b4532a" stroke-width="2.5"/>
<polyline points="52.0,330.0 95.2,322.8 138.3,310.9 181.5,287.1 224.7,258.5" fill="none" stroke="#0f1011" stroke-width="2.5"/>
<circle cx="224.7" cy="234.6" r="4.5" fill="#6f7f8c"/>
<circle cx="224.7" cy="240.6" r="4.5" fill="#b4532a"/>
<circle cx="224.7" cy="258.5" r="4.5" fill="#0f1011"/>
<line x1="341.21666666666664" y1="237.0" x2="363.21666666666664" y2="237.0" stroke="#6f7f8c" stroke-width="2.5"/>
<text x="371.21666666666664" y="241.0" font-size="13" fill="#0f1011">PV, planned value <tspan font-weight="600" fill="#6f7f8c">€80k</tspan></text>
<line x1="341.21666666666664" y1="259.0" x2="363.21666666666664" y2="259.0" stroke="#0f1011" stroke-width="2.5"/>
<text x="371.21666666666664" y="263.0" font-size="13" fill="#0f1011">EV, earned value <tspan font-weight="600" fill="#0f1011">€60k</tspan></text>
<line x1="341.21666666666664" y1="281.0" x2="363.21666666666664" y2="281.0" stroke="#b4532a" stroke-width="2.5"/>
<text x="371.21666666666664" y="285.0" font-size="13" fill="#0f1011">AC, actual cost <tspan font-weight="600" fill="#b4532a">€75k</tspan></text>
</svg>