<svg xmlns="http://www.w3.org/2000/svg" viewBox="0 0 680 350" role="img" aria-label="For 12 fictional orders a year, Supplier B saves 2400 euros before extra freight. Six express shipments leave 300 euros saved; seven cost 50 euros more."><style>text{font-family:Arial,sans-serif;font-size:13px;fill:#5a5d60}</style><line x1="62" y1="290" x2="638" y2="290" stroke="#d6d3cb"/><text x="54" y="294" text-anchor="end">-1,800</text><line x1="62" y1="182.85714285714286" x2="638" y2="182.85714285714286" stroke="#0f1011"/><text x="54" y="186.85714285714286" text-anchor="end">0</text><line x1="62" y1="111.42857142857143" x2="638" y2="111.42857142857143" stroke="#d6d3cb"/><text x="54" y="115.42857142857143" text-anchor="end">1,200</text><line x1="62" y1="40" x2="638" y2="40" stroke="#d6d3cb"/><text x="54" y="44" text-anchor="end">2,400</text><text x="62" y="20">Net annual saving versus A (€)</text><polyline points="62,40 110,60.83333333333333 158,81.66666666666666 206,102.5 254,123.33333333333333 302,144.16666666666669 350,165 398,185.83333333333334 446,206.66666666666666 494,227.5 542,248.33333333333334 590,269.16666666666663 638,290" fill="none" stroke="#0f1011" stroke-width="2.5"/><text x="62" y="322" text-anchor="middle">0</text><text x="158" y="322" text-anchor="middle">2</text><text x="254" y="322" text-anchor="middle">4</text><text x="350" y="322" text-anchor="middle">6</text><text x="446" y="322" text-anchor="middle">8</text><text x="542" y="322" text-anchor="middle">10</text><text x="638" y="322" text-anchor="middle">12</text><text x="350" y="345" text-anchor="middle">B express shipments per year</text><circle cx="350" cy="165" r="5" fill="#b4532a"/><text x="341" y="153" text-anchor="end" style="fill:#b4532a">6 shipments: €300 saved</text><circle cx="398" cy="185.83333333333334" r="5" fill="#b4532a"/><text x="408" y="171.83333333333334" style="fill:#b4532a">7: €50 more spent</text></svg>